<mxfile host="app.diagrams.net" agent="Mozilla/5.0 (Windows NT 10.0; Win64; x64; rv:132.0) Gecko/20100101 Firefox/132.0" version="24.9.0">
  <diagram name="Page-1" id="IPXtiYjDvqrDLfl0yFzO">
    <mxGraphModel dx="1674" dy="746" grid="1" gridSize="10" guides="1" tooltips="1" connect="1" arrows="1" fold="1" page="1" pageScale="1" pageWidth="1200" pageHeight="1600" math="0" shadow="0">
      <root>
        <mxCell id="0" />
        <mxCell id="1" parent="0" />
        <mxCell id="4eq_vdF3BxGJwdHPpGQU-1" value="Menu Secretarios" style="strokeWidth=1;shadow=0;dashed=0;align=center;html=1;shape=mxgraph.mockup.containers.window;align=left;verticalAlign=top;spacingLeft=8;strokeColor2=#008cff;strokeColor3=#c4c4c4;fontColor=#ffffff;mainText=;fontSize=17;labelBackgroundColor=none;whiteSpace=wrap;fillColor=#1ba1e2;strokeColor=#006EAF;" parent="1" vertex="1">
          <mxGeometry x="90" y="200" width="1020" height="760" as="geometry" />
        </mxCell>
        <mxCell id="4eq_vdF3BxGJwdHPpGQU-2" value="Ingreso Hora para Paciente" style="strokeWidth=1;shadow=0;dashed=0;align=center;html=1;shape=mxgraph.mockup.buttons.button;mainText=;buttonStyle=round;fontSize=17;fontStyle=1;whiteSpace=wrap;" parent="1" vertex="1">
          <mxGeometry x="180" y="420" width="220" height="90" as="geometry" />
        </mxCell>
        <mxCell id="4eq_vdF3BxGJwdHPpGQU-3" value="Modificar/Borrar Hora Paciente" style="strokeWidth=1;shadow=0;dashed=0;align=center;html=1;shape=mxgraph.mockup.buttons.button;mainText=;buttonStyle=round;fontSize=17;fontStyle=1;whiteSpace=wrap;" parent="1" vertex="1">
          <mxGeometry x="180" y="670" width="220" height="90" as="geometry" />
        </mxCell>
        <mxCell id="4eq_vdF3BxGJwdHPpGQU-4" value="Ver Horas Agendadas" style="strokeWidth=1;shadow=0;dashed=0;align=center;html=1;shape=mxgraph.mockup.buttons.button;mainText=;buttonStyle=round;fontSize=17;fontStyle=1;whiteSpace=wrap;" parent="1" vertex="1">
          <mxGeometry x="480" y="670" width="220" height="90" as="geometry" />
        </mxCell>
        <mxCell id="4eq_vdF3BxGJwdHPpGQU-5" value="Ver Horas Disponibles Doctores" style="strokeWidth=1;shadow=0;dashed=0;align=center;html=1;shape=mxgraph.mockup.buttons.button;mainText=;buttonStyle=round;fontSize=17;fontStyle=1;whiteSpace=wrap;" parent="1" vertex="1">
          <mxGeometry x="490" y="420" width="220" height="90" as="geometry" />
        </mxCell>
        <mxCell id="DwNXoGnOqoWEjzSwwomB-1" value="Cerrar Sesion" style="strokeWidth=1;shadow=0;dashed=0;align=center;html=1;shape=mxgraph.mockup.buttons.button;mainText=;buttonStyle=round;fontSize=17;fontStyle=1;whiteSpace=wrap;" parent="1" vertex="1">
          <mxGeometry x="100" y="240" width="170" height="50" as="geometry" />
        </mxCell>
        <mxCell id="ycdhvU_eAEkBZ9KNXW4D-1" value="Manejo Inventarios" style="strokeWidth=1;shadow=0;dashed=0;align=center;html=1;shape=mxgraph.mockup.buttons.button;mainText=;buttonStyle=round;fontSize=17;fontStyle=1;whiteSpace=wrap;" vertex="1" parent="1">
          <mxGeometry x="790" y="420" width="220" height="90" as="geometry" />
        </mxCell>
        <mxCell id="ycdhvU_eAEkBZ9KNXW4D-2" value="Manejo Turnos" style="strokeWidth=1;shadow=0;dashed=0;align=center;html=1;shape=mxgraph.mockup.buttons.button;mainText=;buttonStyle=round;fontSize=17;fontStyle=1;whiteSpace=wrap;" vertex="1" parent="1">
          <mxGeometry x="790" y="670" width="220" height="90" as="geometry" />
        </mxCell>
      </root>
    </mxGraphModel>
  </diagram>
</mxfile>
